<mxfile host="app.diagrams.net" modified="2021-03-03T21:19:08.496Z" agent="5.0 (Windows NT 10.0; Win64; x64) AppleWebKit/537.36 (KHTML, like Gecko) Chrome/88.0.4324.190 Safari/537.36" etag="mBESrejaqV9TlsdHtVwc" version="14.4.2" type="github">
  <diagram id="B5JPVfwiFHHiAfXatyd_" name="Page-1">
    <mxGraphModel dx="2249" dy="1969" grid="1" gridSize="10" guides="1" tooltips="1" connect="1" arrows="1" fold="1" page="1" pageScale="1" pageWidth="827" pageHeight="1169" math="0" shadow="0">
      <root>
        <mxCell id="0" />
        <mxCell id="1" parent="0" />
        <mxCell id="sybcU1xqQj4xZzGj0ewR-1" value="" style="strokeWidth=1;shadow=0;dashed=0;align=center;html=1;shape=mxgraph.mockup.containers.browserWindow;rSize=0;strokeColor=#666666;strokeColor2=#008cff;strokeColor3=#c4c4c4;mainText=,;recursiveResize=0;" vertex="1" parent="1">
          <mxGeometry x="-210" y="170" width="550" height="582.5" as="geometry" />
        </mxCell>
        <mxCell id="sybcU1xqQj4xZzGj0ewR-2" value="Tom" style="strokeWidth=1;shadow=0;dashed=0;align=center;html=1;shape=mxgraph.mockup.containers.anchor;fontSize=17;fontColor=#666666;align=left;" vertex="1" parent="sybcU1xqQj4xZzGj0ewR-1">
          <mxGeometry x="60" y="12" width="110" height="26" as="geometry" />
        </mxCell>
        <mxCell id="sybcU1xqQj4xZzGj0ewR-3" value="https://www.tom.squirel" style="strokeWidth=1;shadow=0;dashed=0;align=center;html=1;shape=mxgraph.mockup.containers.anchor;rSize=0;fontSize=17;fontColor=#666666;align=left;" vertex="1" parent="sybcU1xqQj4xZzGj0ewR-1">
          <mxGeometry x="130" y="60" width="250" height="26" as="geometry" />
        </mxCell>
        <mxCell id="sybcU1xqQj4xZzGj0ewR-4" value="" style="verticalLabelPosition=bottom;shadow=0;dashed=0;align=center;html=1;verticalAlign=top;strokeWidth=1;shape=mxgraph.mockup.graphics.simpleIcon;strokeColor=#999999;" vertex="1" parent="sybcU1xqQj4xZzGj0ewR-1">
          <mxGeometry x="50" y="150" width="50" height="140" as="geometry" />
        </mxCell>
        <mxCell id="sybcU1xqQj4xZzGj0ewR-5" value="" style="verticalLabelPosition=bottom;shadow=0;dashed=0;align=center;html=1;verticalAlign=top;strokeWidth=1;shape=mxgraph.mockup.graphics.simpleIcon;strokeColor=#999999;" vertex="1" parent="sybcU1xqQj4xZzGj0ewR-1">
          <mxGeometry x="310" y="240" width="50" height="50" as="geometry" />
        </mxCell>
        <mxCell id="sybcU1xqQj4xZzGj0ewR-6" value="Help Tom Find the squirel" style="strokeWidth=1;shadow=0;dashed=0;align=center;html=1;shape=mxgraph.mockup.containers.anchor;rSize=0;fontSize=17;fontColor=#666666;align=left;" vertex="1" parent="sybcU1xqQj4xZzGj0ewR-1">
          <mxGeometry x="30" y="370" width="250" height="26" as="geometry" />
        </mxCell>
        <mxCell id="sybcU1xqQj4xZzGj0ewR-7" value="" style="line;strokeWidth=2;direction=south;html=1;rotation=90;" vertex="1" parent="sybcU1xqQj4xZzGj0ewR-1">
          <mxGeometry x="257.5" y="87.5" width="10" height="495" as="geometry" />
        </mxCell>
        <mxCell id="sybcU1xqQj4xZzGj0ewR-8" value="" style="verticalLabelPosition=bottom;shadow=0;dashed=0;align=center;html=1;verticalAlign=top;strokeWidth=1;shape=mxgraph.mockup.graphics.simpleIcon;strokeColor=#999999;" vertex="1" parent="sybcU1xqQj4xZzGj0ewR-1">
          <mxGeometry x="217.5" y="130" width="50" height="160" as="geometry" />
        </mxCell>
        <mxCell id="sybcU1xqQj4xZzGj0ewR-9" value="" style="rounded=1;whiteSpace=wrap;html=1;" vertex="1" parent="sybcU1xqQj4xZzGj0ewR-1">
          <mxGeometry x="30" y="420" width="60" height="20" as="geometry" />
        </mxCell>
        <mxCell id="sybcU1xqQj4xZzGj0ewR-10" value="" style="rounded=1;whiteSpace=wrap;html=1;" vertex="1" parent="sybcU1xqQj4xZzGj0ewR-1">
          <mxGeometry x="202.5" y="420" width="47.5" height="20" as="geometry" />
        </mxCell>
        <mxCell id="sybcU1xqQj4xZzGj0ewR-11" style="edgeStyle=orthogonalEdgeStyle;rounded=0;orthogonalLoop=1;jettySize=auto;html=1;exitX=0;exitY=0;exitDx=80;exitDy=66;exitPerimeter=0;entryX=0.38;entryY=0.629;entryDx=0;entryDy=0;entryPerimeter=0;" edge="1" parent="1" source="sybcU1xqQj4xZzGj0ewR-12" target="sybcU1xqQj4xZzGj0ewR-4">
          <mxGeometry relative="1" as="geometry" />
        </mxCell>
        <mxCell id="sybcU1xqQj4xZzGj0ewR-12" value="Tom" style="shape=note;whiteSpace=wrap;html=1;backgroundOutline=1;darkOpacity=0.05;size=32;" vertex="1" parent="1">
          <mxGeometry x="-360" y="220" width="80" height="100" as="geometry" />
        </mxCell>
        <mxCell id="sybcU1xqQj4xZzGj0ewR-13" style="edgeStyle=orthogonalEdgeStyle;rounded=0;orthogonalLoop=1;jettySize=auto;html=1;exitX=0.5;exitY=1;exitDx=0;exitDy=0;exitPerimeter=0;" edge="1" parent="1" source="sybcU1xqQj4xZzGj0ewR-14" target="sybcU1xqQj4xZzGj0ewR-8">
          <mxGeometry relative="1" as="geometry" />
        </mxCell>
        <mxCell id="sybcU1xqQj4xZzGj0ewR-14" value="Tree" style="shape=note;whiteSpace=wrap;html=1;backgroundOutline=1;darkOpacity=0.05;" vertex="1" parent="1">
          <mxGeometry x="-30" y="-160" width="80" height="100" as="geometry" />
        </mxCell>
        <mxCell id="sybcU1xqQj4xZzGj0ewR-15" style="edgeStyle=orthogonalEdgeStyle;rounded=0;orthogonalLoop=1;jettySize=auto;html=1;exitX=0.5;exitY=1;exitDx=0;exitDy=0;exitPerimeter=0;" edge="1" parent="1" source="sybcU1xqQj4xZzGj0ewR-16" target="sybcU1xqQj4xZzGj0ewR-5">
          <mxGeometry relative="1" as="geometry" />
        </mxCell>
        <mxCell id="sybcU1xqQj4xZzGj0ewR-16" value="Squirrell" style="shape=note;whiteSpace=wrap;html=1;backgroundOutline=1;darkOpacity=0.05;" vertex="1" parent="1">
          <mxGeometry x="250" y="-10" width="80" height="100" as="geometry" />
        </mxCell>
        <mxCell id="sybcU1xqQj4xZzGj0ewR-17" style="edgeStyle=orthogonalEdgeStyle;rounded=0;orthogonalLoop=1;jettySize=auto;html=1;exitX=0.5;exitY=1;exitDx=0;exitDy=0;exitPerimeter=0;entryX=0.25;entryY=1;entryDx=0;entryDy=0;" edge="1" parent="1" source="sybcU1xqQj4xZzGj0ewR-18" target="sybcU1xqQj4xZzGj0ewR-9">
          <mxGeometry relative="1" as="geometry" />
        </mxCell>
        <mxCell id="sybcU1xqQj4xZzGj0ewR-18" value="quando cliccato farà andare Tom verso lo scoiattolo e si girerà verso di lui" style="shape=note;whiteSpace=wrap;html=1;backgroundOutline=1;darkOpacity=0.05;" vertex="1" parent="1">
          <mxGeometry x="-350" y="430" width="80" height="170" as="geometry" />
        </mxCell>
        <mxCell id="sybcU1xqQj4xZzGj0ewR-19" style="edgeStyle=orthogonalEdgeStyle;rounded=0;orthogonalLoop=1;jettySize=auto;html=1;exitX=0;exitY=0;exitDx=25;exitDy=0;exitPerimeter=0;" edge="1" parent="1" source="sybcU1xqQj4xZzGj0ewR-20" target="sybcU1xqQj4xZzGj0ewR-10">
          <mxGeometry relative="1" as="geometry" />
        </mxCell>
        <mxCell id="sybcU1xqQj4xZzGj0ewR-20" value="Fa tornare Tom alla posizione iniziale" style="shape=note;whiteSpace=wrap;html=1;backgroundOutline=1;darkOpacity=0.05;" vertex="1" parent="1">
          <mxGeometry x="130" y="790" width="80" height="140" as="geometry" />
        </mxCell>
        <mxCell id="sybcU1xqQj4xZzGj0ewR-21" style="edgeStyle=orthogonalEdgeStyle;rounded=0;orthogonalLoop=1;jettySize=auto;html=1;exitX=1;exitY=1;exitDx=0;exitDy=0;exitPerimeter=0;entryX=0.084;entryY=0.002;entryDx=0;entryDy=0;entryPerimeter=0;" edge="1" parent="1" source="sybcU1xqQj4xZzGj0ewR-22" target="sybcU1xqQj4xZzGj0ewR-1">
          <mxGeometry relative="1" as="geometry" />
        </mxCell>
        <mxCell id="sybcU1xqQj4xZzGj0ewR-22" value="la pagina deve essere con lo stile trash, gli errori grammaticali sono voluti&lt;br&gt;e le immagini saranno di scarsa qualità" style="shape=note;whiteSpace=wrap;html=1;backgroundOutline=1;darkOpacity=0.05;" vertex="1" parent="1">
          <mxGeometry x="-320" y="-140" width="80" height="190" as="geometry" />
        </mxCell>
      </root>
    </mxGraphModel>
  </diagram>
</mxfile>
